<svg width="94" height="80" viewBox="0 0 94 80" fill="none" xmlns="http://www.w3.org/2000/svg">
<path d="M35.277 56.6667C35.277 58.4348 34.4517 60.1305 32.9827 61.3807C31.5137 62.631 29.5212 63.3333 27.4437 63.3333C25.3662 63.3333 23.3737 62.631 21.9047 61.3807C20.4356 60.1305 19.6104 58.4348 19.6104 56.6667C19.6104 54.8986 20.4356 53.2029 21.9047 51.9526C23.3737 50.7024 25.3662 50 27.4437 50C29.5212 50 31.5137 50.7024 32.9827 51.9526C34.4517 53.2029 35.277 54.8986 35.277 56.6667ZM74.4437 56.6667C74.4437 58.4348 73.6184 60.1305 72.1494 61.3807C70.6803 62.631 68.6879 63.3333 66.6104 63.3333C64.5328 63.3333 62.5404 62.631 61.0714 61.3807C59.6023 60.1305 58.777 58.4348 58.777 56.6667C58.777 54.8986 59.6023 53.2029 61.0714 51.9526C62.5404 50.7024 64.5328 50 66.6104 50C68.6879 50 70.6803 50.7024 72.1494 51.9526C73.6184 53.2029 74.4437 54.8986 74.4437 56.6667Z" stroke="#3489B7" stroke-width="3" stroke-linecap="round" stroke-linejoin="round"/>
<path d="M7.86068 33.3334H70.5273M7.86068 33.3334C7.86068 35.9334 7.78234 43.4667 7.87634 50.8668C8.01734 53.2668 8.48734 55.2667 19.6185 56.6667M7.86068 33.3334C8.70668 27.5334 12.3844 20.6667 14.2644 18.0667M35.2773 33.3334V16.6667M58.7382 56.6667H35.2578M7.91943 16.6667H47.9399C47.9399 16.6667 50.0549 16.6667 51.9349 16.8267C55.456 17.1067 58.4131 18.4667 61.3741 21.8667C64.5074 25.4667 66.9123 30.0267 70.1083 32.4667C75.4153 36.5201 85.5125 35.2667 86.0765 43.8667C86.2175 48.2667 86.2175 53.0667 85.9825 53.8667C85.6026 56.2234 83.468 56.6067 80.8125 56.6667C78.5095 56.7201 75.7326 56.5734 74.3813 56.6667" stroke="#3489B7" stroke-width="3" stroke-linecap="round" stroke-linejoin="round"/>
</svg>
