<svg width="35" height="30" viewBox="0 0 35 30" fill="none" xmlns="http://www.w3.org/2000/svg">
<path fill-rule="evenodd" clip-rule="evenodd" d="M-1.33952 4.33738C-1.1006 3.26366 -0.513278 2.30498 0.32626 1.61833C1.1658 0.93169 2.20779 0.557787 3.28158 0.557861H31.7191C32.7929 0.557787 33.8349 0.93169 34.6744 1.61833C35.5139 2.30498 36.1013 3.26366 36.3402 4.33738L17.5003 16.1474L-1.33952 4.33738ZM-1.45801 7.11307V24.3797L12.2939 15.7318L-1.45801 7.11307ZM14.5642 17.1586L-1.00538 26.9464C-0.620697 27.7783 -0.0135566 28.4811 0.745381 28.9729C1.50432 29.4648 2.38384 29.7254 3.28158 29.7245H31.7191C32.6167 29.7247 33.4959 29.4635 34.2544 28.9713C35.0129 28.479 35.6195 27.776 36.0037 26.944L20.4341 17.1561L17.5003 18.9961L14.5642 17.1561V17.1586ZM22.7068 15.7343L36.4587 24.3797V7.11307L22.7068 15.7318V15.7343Z" fill="#00CCA6"/>
</svg>
