<svg width="35" height="36" viewBox="0 0 35 36" fill="none" xmlns="http://www.w3.org/2000/svg">
<path d="M18.2292 1.95825C13.8759 1.95825 13.3284 1.9783 11.618 2.0545C9.90755 2.13471 8.74253 2.40341 7.72187 2.80044C6.65128 3.20312 5.68156 3.83478 4.88049 4.65125C4.06453 5.45272 3.43295 6.42233 3.02969 7.49263C2.63266 8.51127 2.36195 9.6783 2.28375 11.3827C2.20755 13.0972 2.1875 13.6426 2.1875 18.0019C2.1875 22.3572 2.20755 22.9027 2.28375 24.6131C2.36396 26.3215 2.63266 27.4866 3.02969 28.5072C3.44076 29.5619 3.98818 30.4563 4.88049 31.3486C5.77081 32.2409 6.66513 32.7903 7.71987 33.1994C8.74253 33.5964 9.90555 33.8671 11.614 33.9453C13.3264 34.0215 13.8718 34.0416 18.2292 34.0416C22.5865 34.0416 23.1299 34.0215 24.8423 33.9453C26.5488 33.8651 27.7178 33.5964 28.7385 33.1994C29.8084 32.7965 30.7774 32.1649 31.5778 31.3486C32.4702 30.4563 33.0176 29.5619 33.4286 28.5072C33.8237 27.4866 34.0944 26.3215 34.1746 24.6131C34.2508 22.9027 34.2708 22.3572 34.2708 17.9999C34.2708 13.6426 34.2508 13.0972 34.1746 11.3847C34.0944 9.6783 33.8237 8.51127 33.4286 7.49263C33.0254 6.4223 32.3939 5.45268 31.5778 4.65125C30.777 3.83448 29.8072 3.20278 28.7365 2.80044C27.7138 2.40341 26.5468 2.13271 24.8403 2.0545C23.1279 1.9783 22.5845 1.95825 18.2252 1.95825H18.2312H18.2292ZM16.7914 4.84976H18.2312C22.5143 4.84976 23.0216 4.8638 24.712 4.942C26.2761 5.01218 27.1263 5.27487 27.6917 5.49343C28.4397 5.78419 28.9751 6.1331 29.5365 6.69455C30.098 7.25601 30.4449 7.7894 30.7357 8.53935C30.9562 9.10281 31.2169 9.95302 31.2871 11.5171C31.3653 13.2075 31.3813 13.7148 31.3813 17.9959C31.3813 22.277 31.3653 22.7863 31.2871 24.4767C31.2169 26.0408 30.9542 26.889 30.7357 27.4545C30.4785 28.151 30.068 28.7808 29.5345 29.2973C28.9731 29.8587 28.4397 30.2056 27.6897 30.4964C27.1283 30.7169 26.2781 30.9776 24.712 31.0498C23.0216 31.126 22.5143 31.1441 18.2312 31.1441C13.948 31.1441 13.4387 31.126 11.7483 31.0498C10.1843 30.9776 9.33607 30.7169 8.7706 30.4964C8.07379 30.2396 7.4434 29.8298 6.92581 29.2973C6.39192 28.78 5.9808 28.1496 5.72268 27.4525C5.50411 26.889 5.24143 26.0388 5.17125 24.4747C5.09505 22.7843 5.07901 22.277 5.07901 17.9919C5.07901 13.7088 5.09505 13.2035 5.17125 11.5131C5.24344 9.94901 5.50411 9.0988 5.72469 8.53333C6.01544 7.78539 6.36435 7.25 6.92581 6.68854C7.48727 6.12708 8.02065 5.78018 8.7706 5.48942C9.33607 5.26885 10.1843 5.00817 11.7483 4.93599C13.2282 4.86781 13.8017 4.84776 16.7914 4.84575V4.84976ZM26.7934 7.51268C26.5406 7.51268 26.2903 7.56247 26.0567 7.65921C25.8232 7.75595 25.611 7.89775 25.4322 8.0765C25.2535 8.25525 25.1117 8.46746 25.0149 8.70101C24.9182 8.93457 24.8684 9.18488 24.8684 9.43768C24.8684 9.69047 24.9182 9.94079 25.0149 10.1743C25.1117 10.4079 25.2535 10.6201 25.4322 10.7989C25.611 10.9776 25.8232 11.1194 26.0567 11.2161C26.2903 11.3129 26.5406 11.3627 26.7934 11.3627C27.304 11.3627 27.7936 11.1599 28.1546 10.7989C28.5156 10.4379 28.7184 9.94822 28.7184 9.43768C28.7184 8.92714 28.5156 8.43751 28.1546 8.0765C27.7936 7.71549 27.304 7.51268 26.7934 7.51268ZM18.2312 9.76252C17.1385 9.74547 16.0533 9.94597 15.0388 10.3523C14.0244 10.7587 13.1009 11.3628 12.3221 12.1295C11.5434 12.8962 10.9249 13.8102 10.5028 14.8182C10.0806 15.8262 9.86324 16.9081 9.86324 18.0009C9.86324 19.0938 10.0806 20.1757 10.5028 21.1837C10.9249 22.1917 11.5434 23.1056 12.3221 23.8723C13.1009 24.639 14.0244 25.2431 15.0388 25.6495C16.0533 26.0559 17.1385 26.2564 18.2312 26.2393C20.3939 26.2056 22.4566 25.3228 23.974 23.7814C25.4915 22.2401 26.342 20.1639 26.342 18.0009C26.342 15.838 25.4915 13.7617 23.974 12.2204C22.4566 10.6791 20.3939 9.79626 18.2312 9.76252ZM18.2312 12.652C19.6495 12.652 21.0098 13.2155 22.0127 14.2184C23.0156 15.2213 23.5791 16.5816 23.5791 17.9999C23.5791 19.4183 23.0156 20.7785 22.0127 21.7814C21.0098 22.7844 19.6495 23.3478 18.2312 23.3478C16.8128 23.3478 15.4526 22.7844 14.4496 21.7814C13.4467 20.7785 12.8833 19.4183 12.8833 17.9999C12.8833 16.5816 13.4467 15.2213 14.4496 14.2184C15.4526 13.2155 16.8128 12.652 18.2312 12.652Z" fill="#00CCA6"/>
</svg>
