<svg width="35" height="36" viewBox="0 0 35 36" fill="none" xmlns="http://www.w3.org/2000/svg">
<g clip-path="url(#clip0_2359_36)">
<path d="M27.4873 18.5129C27.325 18.3503 27.1321 18.2212 26.9198 18.1332C26.7075 18.0451 26.4799 17.9998 26.2501 17.9998C26.0203 17.9998 25.7927 18.0451 25.5804 18.1332C25.3681 18.2212 25.1752 18.3503 25.0129 18.5129L22.2234 21.3024C20.9301 20.9174 18.5169 20.0424 16.9874 18.5129C15.458 16.9834 14.583 14.5702 14.198 13.277L16.9874 10.4875C17.1501 10.3251 17.2791 10.1323 17.3672 9.91997C17.4552 9.70767 17.5005 9.48009 17.5005 9.25026C17.5005 9.02043 17.4552 8.79286 17.3672 8.58056C17.2791 8.36826 17.1501 8.1754 16.9874 8.01303L9.98751 1.0131C9.82513 0.850443 9.63228 0.721403 9.41998 0.633361C9.20768 0.545318 8.9801 0.5 8.75027 0.5C8.52044 0.5 8.29286 0.545318 8.08056 0.633361C7.86826 0.721403 7.67541 0.850443 7.51303 1.0131L2.76708 5.75905C2.10209 6.42404 1.72759 7.33753 1.74159 8.27027C1.78184 10.7622 2.44158 19.4177 9.26302 26.2391C16.0844 33.0605 24.7399 33.7185 27.2336 33.7605H27.2826C28.2066 33.7605 29.0798 33.3965 29.7413 32.735L34.4873 27.9891C34.6499 27.8267 34.779 27.6338 34.867 27.4215C34.955 27.2092 35.0004 26.9817 35.0004 26.7518C35.0004 26.522 34.955 26.2944 34.867 26.0821C34.779 25.8698 34.6499 25.677 34.4873 25.5146L27.4873 18.5129ZM27.2651 30.2588C25.0811 30.222 17.6087 29.6358 11.7375 23.7629C5.84705 17.8724 5.27655 10.3738 5.24155 8.23352L8.75027 4.72481L13.2757 9.25026L11.013 11.513C10.8073 11.7185 10.6561 11.9721 10.573 12.2507C10.4899 12.5294 10.4775 12.8243 10.537 13.109C10.579 13.3102 11.6062 18.0824 14.5112 20.9874C17.4162 23.8924 22.1884 24.9196 22.3896 24.9616C22.6741 25.0228 22.9694 25.0114 23.2483 24.9285C23.5272 24.8457 23.7807 24.6939 23.9856 24.4874L26.2501 22.2246L30.7756 26.7501L27.2651 30.2588Z" fill="#00CCA6"/>
</g>
<defs>
<clipPath id="clip0_2359_36">
<rect width="35" height="35" fill="white" transform="translate(0 0.5)"/>
</clipPath>
</defs>
</svg>
