<svg width="29" height="38" viewBox="0 0 29 38" fill="none" xmlns="http://www.w3.org/2000/svg">
<path d="M14.5 22.625C18.4983 22.625 21.7499 19.3734 21.7499 15.3751C21.7499 11.3768 18.4983 8.12519 14.5 8.12519C10.5016 8.12519 7.25005 11.3768 7.25005 15.3751C7.25005 19.3734 10.5016 22.625 14.5 22.625ZM14.5 11.7501C16.4991 11.7501 18.1249 13.3759 18.1249 15.3751C18.1249 17.3743 16.4991 19.0001 14.5 19.0001C12.5008 19.0001 10.875 17.3743 10.875 15.3751C10.875 13.3759 12.5008 11.7501 14.5 11.7501Z" fill="#00CCA6"/>
<path d="M13.4488 36.7877C13.7555 37.0068 14.1231 37.1246 14.5 37.1246C14.877 37.1246 15.2445 37.0068 15.5512 36.7877C16.1022 36.3981 29.0524 27.0475 28.9998 15.3751C28.9998 7.38024 22.4949 0.875244 14.5 0.875244C6.50515 0.875244 0.000159567 7.38024 0.000159567 15.366C-0.0524024 27.0475 12.8978 36.3981 13.4488 36.7877ZM14.5 4.50021C20.4975 4.50021 25.3749 9.37759 25.3749 15.3842C25.4129 23.4279 17.4217 30.6507 14.5 33.0196C11.5801 30.6489 3.58706 23.4243 3.62512 15.3751C3.62512 9.37759 8.5025 4.50021 14.5 4.50021Z" fill="#00CCA6"/>
</svg>
