<svg width="88" height="88" viewBox="0 0 88 88" fill="none" xmlns="http://www.w3.org/2000/svg">
<path d="M52.8377 50.0973C50.4114 52.863 47.4571 55.1259 44.132 56.7664V66.195C44.132 67.0285 43.8008 67.8279 43.2114 68.4173C42.622 69.0067 41.8226 69.3379 40.9891 69.3379H22.132C21.2984 69.3379 20.499 69.0067 19.9096 68.4173C19.3202 67.8279 18.9891 67.0285 18.9891 66.195V56.7664C12.3662 53.4606 7.30298 47.6902 4.88613 40.6937C2.46929 33.6972 2.89137 26.0321 6.06181 19.3432C9.23224 12.6544 14.8984 7.47489 21.8443 4.91621C28.7902 2.35753 36.4623 2.62359 43.2143 5.65729M18.9891 84.8573H44.132" stroke="#3489B7" stroke-width="3" stroke-linecap="round" stroke-linejoin="round"/>
<path d="M46.4828 24.7281C44.2766 24.3447 44.2766 21.1767 46.4828 20.7932C50.388 20.1102 54.0018 18.2813 56.8649 15.5391C59.7279 12.7969 61.7109 9.26529 62.5617 5.39323L62.6937 4.77723C63.1714 2.59608 66.2766 2.58351 66.7731 4.75837L66.9366 5.46866C67.8145 9.32574 69.8138 12.837 72.6827 15.5604C75.5516 18.2839 79.1619 20.098 83.0594 20.7744C85.2783 21.1641 85.2783 24.3447 83.0594 24.7344C79.1631 25.4119 75.5541 27.2264 72.6864 29.9498C69.8187 32.6733 67.8204 36.1839 66.9428 40.0401L66.7794 40.7504C66.2828 42.9252 63.1777 42.9127 62.7 40.7315L62.5743 40.1218C61.7226 36.248 59.7378 32.7152 56.8723 29.9728C54.0068 27.2305 50.3903 25.4089 46.4828 24.7281Z" stroke="#3489B7" stroke-width="3" stroke-linecap="round" stroke-linejoin="round"/>
</svg>
