<svg width="35" height="35" viewBox="0 0 35 35" fill="none" xmlns="http://www.w3.org/2000/svg">
<path d="M17.5704 0.500092C7.96734 0.500092 0.140704 8.06507 0.140704 17.347C0.140704 20.322 0.949749 23.212 2.46231 25.762L0 34.5L9.23367 32.154C11.7839 33.497 14.6508 34.211 17.5704 34.211C27.1734 34.211 35 26.646 35 17.364C35 12.8591 33.1884 8.62607 29.8995 5.44708C28.2868 3.87306 26.3661 2.62503 24.2494 1.7757C22.1327 0.92638 19.8622 0.492753 17.5704 0.500092ZM17.5879 3.33908C21.4573 3.33908 25.0804 4.80108 27.8241 7.45307C29.1703 8.75445 30.2376 10.2997 30.9649 12.0004C31.6923 13.7011 32.0654 15.5238 32.0628 17.364C32.0628 25.082 25.5553 31.355 17.5704 31.355C14.9673 31.355 12.4171 30.692 10.201 29.4L9.67337 29.111L4.18593 30.505L5.64573 25.337L5.29397 24.793C3.84217 22.5633 3.07379 19.9816 3.07789 17.347C3.09548 9.62907 9.58543 3.33908 17.5879 3.33908ZM11.397 9.56107C11.1156 9.56107 10.6407 9.66307 10.2362 10.0881C9.84925 10.5131 8.70603 11.5501 8.70603 13.6071C8.70603 15.6811 10.2714 17.67 10.4648 17.959C10.7111 18.248 13.5603 22.498 17.9397 24.3C18.9774 24.759 19.7864 25.014 20.4196 25.201C21.4573 25.524 22.407 25.473 23.1633 25.371C24.0075 25.252 25.7312 24.351 26.1005 23.365C26.4698 22.379 26.4698 21.546 26.3643 21.359C26.2412 21.189 25.9598 21.087 25.5201 20.9C25.0804 20.662 22.9347 19.642 22.5477 19.506C22.1432 19.37 21.897 19.302 21.5628 19.71C21.2814 20.135 20.4372 21.087 20.191 21.359C19.9271 21.648 19.6809 21.682 19.2588 21.478C18.8015 21.257 17.3945 20.815 15.7412 19.387C14.4397 18.265 13.5779 16.8881 13.3141 16.4631C13.103 16.0551 13.2965 15.8001 13.5075 15.6131C13.701 15.4261 13.9824 15.1201 14.1583 14.8651C14.3869 14.6271 14.4573 14.4401 14.598 14.1681C14.7387 13.8791 14.6683 13.6411 14.5628 13.4371C14.4573 13.2501 13.5779 11.1421 13.2085 10.3091C12.8568 9.49307 12.505 9.59507 12.2236 9.57807C11.9774 9.57807 11.696 9.56107 11.397 9.56107Z" fill="#00CCA6"/>
</svg>
